<?xml version="1.0" encoding="UTF-8"?>
<!DOCTYPE svg PUBLIC "-//W3C//DTD SVG 1.1//EN" "http://www.w3.org/Graphics/SVG/1.1/DTD/svg11.dtd">
<svg xmlns="http://www.w3.org/2000/svg" version="1.1" width="4000px" height="2500px" style="shape-rendering:geometricPrecision; text-rendering:geometricPrecision; image-rendering:optimizeQuality; fill-rule:evenodd; clip-rule:evenodd" xmlns:xlink="http://www.w3.org/1999/xlink">
<g><path style="opacity:0.855" fill="#fab03f" d="M 2463.5,1662.5 C 2456.62,1651.65 2453.45,1639.65 2454,1626.5C 2452.92,1619.06 2450.58,1612.06 2447,1605.5C 2449.25,1619.91 2448.59,1634.24 2445,1648.5C 2444.5,1657.51 2444.67,1666.51 2445.5,1675.5C 2451.6,1673.87 2457.43,1671.54 2463,1668.5C 2464.5,1672.73 2463.33,1675.73 2459.5,1677.5C 2457.7,1695.7 2456.04,1713.87 2454.5,1732C 2457.67,1734.5 2460.83,1737 2464,1739.5C 2465.11,1743.62 2464.44,1747.29 2462,1750.5C 2460.91,1749.71 2459.75,1749.04 2458.5,1748.5C 2456.04,1750.03 2453.37,1751.03 2450.5,1751.5C 2444.66,1750.2 2438.83,1750.2 2433,1751.5C 2420.4,1748.91 2407.74,1746.91 2395,1745.5C 2391.69,1749.33 2387.53,1750.49 2382.5,1749C 2392.78,1739.61 2399.28,1728.11 2402,1714.5C 2396.29,1728.44 2387.79,1740.27 2376.5,1750C 2374.5,1750.67 2372.5,1750.67 2370.5,1750C 2371.06,1749.62 2371.39,1749.12 2371.5,1748.5C 2356.88,1753.13 2356.22,1751.96 2369.5,1745C 2381.65,1733.14 2391.15,1719.64 2398,1704.5C 2392.25,1713.01 2386.25,1721.34 2380,1729.5C 2370.13,1741.22 2357.47,1746.56 2342,1745.5C 2337.19,1745.67 2332.53,1745 2328,1743.5C 2326.28,1743.61 2326.11,1744.11 2327.5,1745C 2330.55,1747.19 2333.89,1748.86 2337.5,1750C 2334.04,1750.82 2330.7,1750.48 2327.5,1749C 2321.99,1745.48 2316.49,1741.98 2311,1738.5C 2307.74,1739.88 2304.58,1741.38 2301.5,1743C 2309.87,1743.69 2317.54,1746.36 2324.5,1751C 2321.83,1751.67 2319.17,1751.67 2316.5,1751C 2303.65,1744.61 2291.15,1745.11 2279,1752.5C 2258.25,1752.35 2237.42,1751.85 2216.5,1751C 2213.5,1750 2210.5,1749 2207.5,1748C 2196.86,1741.53 2185.86,1735.7 2174.5,1730.5C 2154.89,1737.81 2135.22,1744.81 2115.5,1751.5C 2114.17,1751.17 2112.83,1750.83 2111.5,1750.5C 2107.35,1738.55 2102.52,1726.88 2097,1715.5C 2094.67,1711.83 2091.67,1708.83 2088,1706.5C 2080.79,1707.92 2073.63,1707.59 2066.5,1705.5C 2076.43,1719.59 2085.76,1734.59 2094.5,1750.5C 2092.39,1751.85 2090.56,1751.52 2089,1749.5C 2082,1736.16 2074,1723.49 2065,1711.5C 2060.23,1706.73 2054.9,1702.73 2049,1699.5C 2049.36,1706.3 2050.7,1712.96 2053,1719.5C 2057.59,1730.35 2062.43,1741.02 2067.5,1751.5C 2065.86,1751.71 2064.36,1751.38 2063,1750.5C 2053.11,1734.85 2046.78,1717.85 2044,1699.5C 2041.22,1717.19 2042.72,1734.52 2048.5,1751.5C 2045.52,1751.76 2043.69,1750.43 2043,1747.5C 2039.7,1735.72 2037.7,1723.72 2037,1711.5C 2031.13,1719.78 2027.63,1728.94 2026.5,1739C 2027.07,1742.82 2027.4,1746.65 2027.5,1750.5C 2026.17,1750.5 2024.83,1750.5 2023.5,1750.5C 2022.96,1746.83 2022.62,1747.16 2022.5,1751.5C 2018.48,1752.51 2014.48,1752.51 2010.5,1751.5C 2014.17,1740.45 2017.67,1729.45 2021,1718.5C 2019,1721.17 2017,1723.83 2015,1726.5C 2012.13,1734.29 2008.96,1741.95 2005.5,1749.5C 2003.83,1750.83 2002.17,1750.83 2000.5,1749.5C 2001.64,1747.92 2002.14,1746.26 2002,1744.5C 1999.83,1746.67 1997.67,1748.83 1995.5,1751C 1993.5,1751.67 1991.5,1751.67 1989.5,1751C 1999.87,1741.99 2007.87,1731.32 2013.5,1719C 1996.85,1730.85 1979.18,1741.52 1960.5,1751C 1957.83,1751.67 1955.17,1751.67 1952.5,1751C 1967.5,1742.84 1982.16,1734.17 1996.5,1725C 1997.7,1724.35 1997.7,1723.85 1996.5,1723.5C 1977.5,1732.33 1958.5,1741.17 1939.5,1750C 1936.5,1750.67 1933.5,1750.67 1930.5,1750C 1950.9,1739.8 1971.56,1730.14 1992.5,1721C 1998.84,1717.5 2004.84,1713.5 2010.5,1709C 1996.8,1708.39 1983.46,1710.39 1970.5,1715C 1959.72,1721.72 1948.39,1727.39 1936.5,1732C 1929.03,1737.64 1922.03,1743.8 1915.5,1750.5C 1902.66,1752.99 1901.33,1750.15 1911.5,1742C 1902.81,1744.23 1894.14,1746.89 1885.5,1750C 1872.52,1751.29 1859.52,1751.63 1846.5,1751C 1862.06,1746.19 1877.73,1741.52 1893.5,1737C 1888.88,1737.27 1884.88,1735.94 1881.5,1733C 1852.05,1736.56 1823.05,1742.56 1794.5,1751C 1790.17,1751.67 1785.83,1751.67 1781.5,1751C 1811.5,1741.17 1842.17,1733.83 1873.5,1729C 1872.33,1728.83 1871.17,1728.67 1870,1728.5C 1836.32,1734.19 1802.49,1738.69 1768.5,1742C 1753.7,1746.03 1738.7,1749.03 1723.5,1751C 1708.83,1751.67 1694.17,1751.67 1679.5,1751C 1697.85,1749.36 1716.18,1747.36 1734.5,1745C 1699.98,1744.75 1665.48,1743.92 1631,1742.5C 1620.81,1742.62 1610.65,1743.12 1600.5,1744C 1612.17,1744.33 1623.83,1744.67 1635.5,1745C 1646.75,1746.04 1657.75,1748.04 1668.5,1751C 1651.51,1750.44 1634.51,1749.6 1617.5,1748.5C 1597.85,1749.74 1578.18,1750.74 1558.5,1751.5C 1555.5,1751.17 1552.5,1750.83 1549.5,1750.5C 1567.44,1741.76 1586.44,1736.93 1606.5,1736C 1648.83,1736.56 1691.16,1736.9 1733.5,1737C 1755.61,1736.1 1777.61,1734.1 1799.5,1731C 1754.06,1729.4 1709.4,1722.74 1665.5,1711C 1638.79,1701.99 1611.79,1693.99 1584.5,1687C 1568.28,1683.77 1551.95,1682.77 1535.5,1684C 1532.92,1681.88 1532.92,1679.71 1535.5,1677.5C 1568.61,1664.85 1602.61,1661.69 1637.5,1668C 1664.62,1674.2 1691.62,1680.86 1718.5,1688C 1729.4,1690.65 1740.4,1692.32 1751.5,1693C 1713.89,1680.69 1677.22,1666.02 1641.5,1649C 1621.65,1640.71 1600.99,1636.21 1579.5,1635.5C 1566.99,1636 1554.66,1637.67 1542.5,1640.5C 1542.34,1638.47 1542.5,1636.47 1543,1634.5C 1604.75,1613.7 1666.91,1612.54 1729.5,1631C 1756.27,1639.98 1782.27,1650.81 1807.5,1663.5C 1810.75,1654.76 1816.08,1647.59 1823.5,1642C 1832.49,1636 1842.16,1631.34 1852.5,1628C 1792.13,1597.24 1728.13,1579.24 1660.5,1574C 1657.64,1570.71 1658.3,1568.38 1662.5,1567C 1721.19,1558.57 1779.19,1561.57 1836.5,1576C 1818.45,1533.79 1832.45,1511.46 1878.5,1509C 1899.49,1506.57 1919.49,1509.9 1938.5,1519C 1954.96,1526.46 1968.8,1537.29 1980,1551.5C 1989.51,1567.18 1998.51,1583.18 2007,1599.5C 2000.73,1585.61 1994.4,1571.61 1988,1557.5C 1976.86,1528.77 1974.86,1499.44 1982,1469.5C 1986.35,1455.63 1994.85,1445.13 2007.5,1438C 2022.26,1429.8 2037.92,1424.3 2054.5,1421.5C 2064.21,1422.22 2069.21,1427.55 2069.5,1437.5C 2068.86,1440.88 2068.02,1444.22 2067,1447.5C 2056.02,1466.74 2051.02,1487.4 2052,1509.5C 2053.45,1520.87 2055.12,1532.2 2057,1543.5C 2057.17,1549 2057.33,1554.5 2057.5,1560C 2056.68,1579.85 2055.85,1599.69 2055,1619.5C 2059.69,1602.8 2067.02,1587.46 2077,1573.5C 2080.02,1570.32 2083.18,1567.32 2086.5,1564.5C 2085.61,1552.07 2088.78,1540.73 2096,1530.5C 2107.73,1516.13 2122.07,1505.13 2139,1497.5C 2140.29,1489.34 2142.95,1481.68 2147,1474.5C 2155.46,1463.71 2164.29,1453.21 2173.5,1443C 2186.34,1435.53 2200.01,1433.7 2214.5,1437.5C 2219.46,1435.79 2224.46,1433.95 2229.5,1432C 2235.42,1421.75 2243.09,1413.08 2252.5,1406C 2264.34,1399.63 2277,1396.3 2290.5,1396C 2301.7,1395.2 2312.87,1395.37 2324,1396.5C 2336.31,1386.17 2350.47,1379.67 2366.5,1377C 2375.43,1375.2 2384.43,1373.87 2393.5,1373C 2370.13,1370.77 2346.79,1368.11 2323.5,1365C 2308.54,1361.68 2293.87,1357.35 2279.5,1352C 2267,1348.94 2254.33,1347.94 2241.5,1349C 2229.51,1350.79 2217.68,1353.29 2206,1356.5C 2192.02,1355.88 2186.36,1348.88 2189,1335.5C 2195.35,1320.84 2203.69,1307.5 2214,1295.5C 2226.4,1282.31 2241.73,1275.98 2260,1276.5C 2287.37,1277.18 2312.87,1284.35 2336.5,1298C 2347.01,1304.75 2357.34,1311.75 2367.5,1319C 2368.17,1319.67 2368.83,1319.67 2369.5,1319C 2357.83,1310 2346.17,1301 2334.5,1292C 2299.77,1252.99 2292.94,1209.49 2314,1161.5C 2320.89,1147.8 2332.06,1140.8 2347.5,1140.5C 2307.59,1078.37 2287.92,1010.2 2288.5,936C 2288.47,913.765 2290.47,891.765 2294.5,870C 2298.14,868.643 2300.31,869.81 2301,873.5C 2306.83,944.328 2327.17,1010.66 2362,1072.5C 2377.94,1098.1 2394.27,1123.44 2411,1148.5C 2417.13,1159.1 2422.47,1170.1 2427,1181.5C 2428.34,1130.89 2419.34,1082.23 2400,1035.5C 2384.63,1004.42 2370.63,972.755 2358,940.5C 2338.21,878.946 2338.88,817.613 2360,756.5C 2361.99,753.162 2364.32,752.828 2367,755.5C 2365.91,761.803 2364.58,768.136 2363,774.5C 2360.66,792.095 2361.99,809.429 2367,826.5C 2370.27,836.974 2373.94,847.307 2378,857.5C 2395.8,892.226 2410.46,928.226 2422,965.5C 2421.1,954.433 2419.43,943.433 2417,932.5C 2410.54,906.782 2403.87,881.115 2397,855.5C 2388.82,818.658 2391.49,782.658 2405,747.5C 2409.14,744.329 2411.64,745.329 2412.5,750.5C 2410.62,767.367 2411.78,784.034 2416,800.5C 2423.59,825.945 2431.59,851.278 2440,876.5C 2451.42,918.76 2458.08,961.76 2460,1005.5C 2461.07,998.178 2462.07,990.844 2463,983.5C 2465.36,1016.16 2463.19,1048.49 2456.5,1080.5C 2456.67,1081.5 2456.83,1082.5 2457,1083.5C 2458.87,1073.14 2460.87,1062.81 2463,1052.5C 2463.67,1059.83 2463.67,1067.17 2463,1074.5C 2459.57,1092.1 2456.9,1109.77 2455,1127.5C 2457.86,1120.58 2460.53,1113.58 2463,1106.5C 2463.67,1115.83 2463.67,1125.17 2463,1134.5C 2462.03,1137.74 2460.86,1140.91 2459.5,1144C 2460.14,1145.71 2461.14,1145.88 2462.5,1144.5C 2463.65,1147.11 2463.82,1149.77 2463,1152.5C 2458.62,1154.19 2454.96,1156.85 2452,1160.5C 2441.76,1174.38 2436.26,1190.38 2435.5,1208.5C 2435.67,1210.5 2435.83,1212.5 2436,1214.5C 2440.55,1223.6 2444.55,1232.93 2448,1242.5C 2448.33,1231.83 2448.67,1221.17 2449,1210.5C 2450.66,1198.19 2455.32,1187.19 2463,1177.5C 2463.67,1180.17 2463.67,1182.83 2463,1185.5C 2455.19,1198.24 2451.36,1212.07 2451.5,1227C 2452.32,1234.75 2452.82,1242.59 2453,1250.5C 2459.65,1256.23 2460.15,1262.39 2454.5,1269C 2456.7,1280.4 2458.53,1291.9 2460,1303.5C 2460.33,1304.17 2460.67,1304.83 2461,1305.5C 2461.47,1303.75 2462.14,1302.09 2463,1300.5C 2463.98,1311.25 2463.48,1321.92 2461.5,1332.5C 2461.9,1334.2 2462.4,1335.86 2463,1337.5C 2463.33,1336.83 2463.67,1336.17 2464,1335.5C 2464.67,1368.17 2464.67,1400.83 2464,1433.5C 2463.04,1434.58 2462.21,1435.75 2461.5,1437C 2464.6,1462.16 2463.27,1487.16 2457.5,1512C 2457.67,1512.83 2457.83,1513.67 2458,1514.5C 2459.94,1510.28 2461.61,1505.94 2463,1501.5C 2463.19,1510.55 2463.69,1519.55 2464.5,1528.5C 2463.39,1530.39 2462.56,1532.39 2462,1534.5C 2459.5,1531.33 2456.67,1528.5 2453.5,1526C 2451.98,1524.99 2450.31,1524.49 2448.5,1524.5C 2446.56,1532.56 2442.89,1539.72 2437.5,1546C 2445.81,1542.17 2454.48,1539 2463.5,1536.5C 2463.5,1537.83 2463.5,1539.17 2463.5,1540.5C 2453.97,1543.07 2444.97,1546.9 2436.5,1552C 2445.82,1551.68 2455.15,1551.18 2464.5,1550.5C 2464.5,1551.83 2464.5,1553.17 2464.5,1554.5C 2452.18,1553.71 2440.18,1555.21 2428.5,1559C 2440.23,1558.39 2451.89,1559.23 2463.5,1561.5C 2463.5,1562.5 2463.5,1563.5 2463.5,1564.5C 2454.62,1563.47 2445.79,1562.47 2437,1561.5C 2431.77,1562.22 2426.61,1563.39 2421.5,1565C 2435.63,1566.11 2449.46,1568.61 2463,1572.5C 2463.75,1573.64 2463.58,1574.64 2462.5,1575.5C 2450.08,1571.71 2437.42,1569.54 2424.5,1569C 2432.75,1572.53 2441.09,1575.86 2449.5,1579C 2454.27,1581.44 2458.77,1584.27 2463,1587.5C 2462.22,1594.82 2462.38,1602.15 2463.5,1609.5C 2462.93,1614.36 2462.26,1619.19 2461.5,1624C 2463.35,1627.65 2463.85,1631.48 2463,1635.5C 2462.67,1634.83 2462.33,1634.17 2462,1633.5C 2461.14,1643.27 2461.64,1652.93 2463.5,1662.5 Z M 2404.5,784.5 C 2411.24,813.223 2419.74,841.556 2430,869.5C 2441.83,907.308 2448.5,945.975 2450,985.5C 2448.29,965.556 2444.95,945.889 2440,926.5C 2430.9,899.194 2421.4,872.027 2411.5,845C 2405.13,825.218 2402.8,805.052 2404.5,784.5 Z M 2400.5,816.5 C 2402.4,827.168 2404.9,837.835 2408,848.5C 2416.67,872.5 2425.33,896.5 2434,920.5C 2443.04,952.358 2447.54,984.858 2447.5,1018C 2447.01,1041.57 2445.51,1065.07 2443,1088.5C 2438.55,1043.48 2433.89,998.478 2429,953.5C 2422.57,920.452 2414.57,887.785 2405,855.5C 2402,842.67 2400.5,829.67 2400.5,816.5 Z M 2358.5,825.5 C 2361.98,836.167 2365.82,846.834 2370,857.5C 2381.22,881.264 2391.88,905.264 2402,929.5C 2413.63,960.352 2422.3,992.019 2428,1024.5C 2429.53,1051.81 2429.86,1079.15 2429,1106.5C 2423.6,1058.73 2415.6,1011.39 2405,964.5C 2400.78,947.273 2395.78,930.273 2390,913.5C 2381.33,894.167 2372.67,874.833 2364,855.5C 2359.61,845.958 2357.78,835.958 2358.5,825.5 Z M 2351.5,832.5 C 2353.07,833.681 2353.9,835.347 2354,837.5C 2355.39,864.21 2360.39,890.21 2369,915.5C 2380.84,943.032 2391.51,971.032 2401,999.5C 2404.97,1012.69 2407.97,1026.02 2410,1039.5C 2398.67,1014.83 2387.33,990.167 2376,965.5C 2357.49,923.104 2349.32,878.77 2351.5,832.5 Z M 2361.5,861.5 C 2381.53,898.594 2395.7,937.928 2404,979.5C 2407.41,994.406 2410.25,1009.41 2412.5,1024.5C 2407.88,1007.46 2402.71,990.463 2397,973.5C 2387.11,949.723 2377.78,925.723 2369,901.5C 2364.91,888.456 2362.41,875.123 2361.5,861.5 Z M 2303.5,943.5 C 2314.59,990.573 2332.09,1035.24 2356,1077.5C 2373,1103.83 2390,1130.17 2407,1156.5C 2410.67,1163.83 2414.33,1171.17 2418,1178.5C 2420.3,1183.74 2421.97,1189.07 2423,1194.5C 2417.41,1184.99 2412.08,1175.33 2407,1165.5C 2378.64,1124.14 2353.31,1080.8 2331,1035.5C 2320.15,1011.96 2311.49,987.624 2305,962.5C 2303.99,956.204 2303.49,949.871 2303.5,943.5 Z M 2394.5,1163.5 C 2388.89,1159.69 2383.22,1155.85 2377.5,1152C 2370.56,1148.61 2363.72,1145.11 2357,1141.5C 2317.69,1082.22 2297.69,1016.89 2297,945.5C 2300.63,968.892 2304.63,992.225 2309,1015.5C 2316.23,1047.87 2328.9,1077.87 2347,1105.5C 2363.07,1124.73 2378.9,1144.06 2394.5,1163.5 Z M 2393.5,1153.5 C 2371.13,1130.96 2351.97,1105.96 2336,1078.5C 2322.88,1051.82 2314.22,1023.82 2310,994.5C 2322.32,1027.8 2337.32,1059.8 2355,1090.5C 2367.86,1111.56 2380.69,1132.56 2393.5,1153.5 Z M 2450.5,1034.5 C 2451.68,1045.35 2451.51,1056.35 2450,1067.5C 2450.12,1056.51 2450.28,1045.51 2450.5,1034.5 Z M 2345.5,1148.5 C 2347.14,1147.6 2348.97,1147.6 2351,1148.5C 2383.43,1161.6 2408.43,1183.26 2426,1213.5C 2432.85,1225.04 2438.35,1237.21 2442.5,1250C 2441,1251.66 2439.34,1253.16 2437.5,1254.5C 2411.58,1215.23 2380.91,1179.9 2345.5,1148.5 Z M 2442.5,1299.5 C 2436.09,1285.91 2428.59,1272.91 2420,1260.5C 2422.98,1246.48 2417.48,1240.65 2403.5,1243C 2382.38,1223.56 2363.88,1202.06 2348,1178.5C 2342.39,1169.61 2337.55,1160.27 2333.5,1150.5C 2335.42,1149.36 2337.42,1149.19 2339.5,1150C 2342.17,1151.67 2344.83,1153.33 2347.5,1155C 2375.56,1182.38 2401.4,1211.55 2425,1242.5C 2431.66,1252.83 2437,1263.83 2441,1275.5C 2441.34,1283.52 2441.84,1291.52 2442.5,1299.5 Z M 2428.5,1313.5 C 2416.03,1300.87 2403.7,1288.03 2391.5,1275C 2394.26,1268.01 2392.26,1263.01 2385.5,1260C 2382.45,1259.82 2379.45,1259.32 2376.5,1258.5C 2361.09,1243.26 2348.59,1225.93 2339,1206.5C 2331.26,1189.62 2328.09,1171.95 2329.5,1153.5C 2342.27,1179.77 2358.77,1203.44 2379,1224.5C 2386,1231.5 2393,1238.5 2400,1245.5C 2396.33,1255.48 2399.66,1261.81 2410,1264.5C 2416.47,1280.75 2422.64,1297.09 2428.5,1313.5 Z M 2393.5,1153.5 C 2394.91,1153.97 2395.57,1154.97 2395.5,1156.5C 2394.09,1156.03 2393.43,1155.03 2393.5,1153.5 Z M 2321.5,1161.5 C 2321.84,1188.3 2326,1214.63 2334,1240.5C 2340.38,1258.86 2350.05,1275.19 2363,1289.5C 2383.98,1310.49 2406.15,1329.99 2429.5,1348C 2432.06,1351.29 2433.89,1354.79 2435,1358.5C 2400.97,1332.98 2367.31,1306.98 2334,1280.5C 2305.16,1243.46 2300.99,1203.79 2321.5,1161.5 Z M 2328.5,1190.5 C 2333.73,1207.96 2341.9,1223.96 2353,1238.5C 2359.43,1246.35 2366.1,1254.02 2373,1261.5C 2367.9,1274.42 2372.4,1280.92 2386.5,1281C 2403.53,1296.9 2416.2,1315.74 2424.5,1337.5C 2402.29,1320.47 2381.46,1301.8 2362,1281.5C 2340.88,1254.98 2329.71,1224.65 2328.5,1190.5 Z M 2420.5,1269.5 C 2425.06,1274.93 2428.89,1280.93 2432,1287.5C 2440.07,1304.64 2446.73,1322.3 2452,1340.5C 2452.67,1343.17 2452.67,1345.83 2452,1348.5C 2440.39,1322.61 2429.89,1296.28 2420.5,1269.5 Z M 2422.5,1360.5 C 2410.41,1356.98 2398.41,1353.14 2386.5,1349C 2369.17,1336.33 2351.83,1323.67 2334.5,1311C 2311.22,1296.51 2285.89,1289.51 2258.5,1290C 2244.54,1291.27 2231.54,1295.43 2219.5,1302.5C 2225.53,1293 2234.2,1287.17 2245.5,1285C 2275.26,1281.82 2303.26,1287.49 2329.5,1302C 2347.85,1313.84 2365.85,1326.17 2383.5,1339C 2396.24,1346.7 2409.24,1353.87 2422.5,1360.5 Z M 2364.5,1339.5 C 2331.35,1324.24 2296.52,1315.9 2260,1314.5C 2236.39,1313.92 2215.73,1321.26 2198,1336.5C 2202.67,1323.14 2211.17,1312.64 2223.5,1305C 2245.09,1293.51 2267.75,1290.84 2291.5,1297C 2319.6,1305.04 2343.93,1319.2 2364.5,1339.5 Z M 2424.5,1316.5 C 2428.17,1319.33 2431.33,1322.67 2434,1326.5C 2439.34,1338.16 2444.34,1349.83 2449,1361.5C 2438.24,1347.98 2430.07,1332.98 2424.5,1316.5 Z M 2255.5,1318.5 C 2288.01,1319.3 2319.34,1325.8 2349.5,1338C 2363.31,1343.74 2376.98,1349.74 2390.5,1356C 2347.12,1348.95 2303.46,1343.95 2259.5,1341C 2245.83,1340.28 2232.16,1339.95 2218.5,1340C 2211.63,1340.57 2205.13,1342.41 2199,1345.5C 2197.94,1345.37 2197.11,1344.87 2196.5,1344C 2206.49,1332.83 2218.83,1325.5 2233.5,1322C 2240.93,1320.5 2248.26,1319.33 2255.5,1318.5 Z M 2370.5,1320.5 C 2372.03,1320.43 2373.03,1321.09 2373.5,1322.5C 2371.97,1322.57 2370.97,1321.91 2370.5,1320.5 Z M 2212.5,1344.5 C 2214.86,1344.34 2217.19,1344.5 2219.5,1345C 2214.34,1347.17 2209.01,1348.17 2203.5,1348C 2206.6,1346.77 2209.6,1345.61 2212.5,1344.5 Z M 2295.5,1348.5 C 2334.16,1351.62 2372.5,1357.12 2410.5,1365C 2377.9,1364.37 2345.57,1361.04 2313.5,1355C 2307.29,1353.1 2301.29,1350.93 2295.5,1348.5 Z M 2397.5,1379.5 C 2414,1378.69 2430.33,1379.86 2446.5,1383C 2448.26,1383.97 2448.59,1385.13 2447.5,1386.5C 2441.03,1389.49 2434.36,1391.99 2427.5,1394C 2408.58,1398.06 2389.91,1403.06 2371.5,1409C 2366.59,1411.37 2361.75,1413.87 2357,1416.5C 2350.85,1408.85 2343.35,1402.85 2334.5,1398.5C 2341.11,1393.36 2348.44,1389.53 2356.5,1387C 2370.11,1383.4 2383.77,1380.9 2397.5,1379.5 Z M 2459.5,1389.5 C 2467.55,1417.06 2458.88,1437.39 2433.5,1450.5C 2425.27,1447.2 2416.93,1444.36 2408.5,1442C 2428.17,1435.31 2443.34,1423.15 2454,1405.5C 2456.54,1400.39 2458.37,1395.06 2459.5,1389.5 Z M 2453.5,1390.5 C 2454.1,1390.74 2454.43,1391.24 2454.5,1392C 2448.98,1408.53 2438.64,1421.2 2423.5,1430C 2415.77,1434.02 2407.94,1437.86 2400,1441.5C 2391.23,1439.68 2382.4,1438.01 2373.5,1436.5C 2376.42,1434.91 2379.42,1433.41 2382.5,1432C 2398.01,1428.05 2413.01,1422.72 2427.5,1416C 2438,1409.33 2446.67,1400.83 2453.5,1390.5 Z M 2447.5,1391.5 C 2438.35,1404.47 2426.18,1413.47 2411,1418.5C 2396.91,1423.14 2382.74,1427.48 2368.5,1431.5C 2365.6,1428.05 2362.93,1424.38 2360.5,1420.5C 2366.28,1415.95 2372.78,1412.62 2380,1410.5C 2396.03,1405.83 2412.2,1401.66 2428.5,1398C 2434.88,1395.93 2441.22,1393.76 2447.5,1391.5 Z M 2305.5,1400.5 C 2325.54,1399.66 2341.7,1407 2354,1422.5C 2369.18,1443.36 2377.18,1466.69 2378,1492.5C 2371.9,1489.35 2365.4,1487.52 2358.5,1487C 2351.55,1478.04 2345.38,1468.54 2340,1458.5C 2333.31,1448.15 2323.81,1442.32 2311.5,1441C 2307.5,1438.33 2303.5,1435.67 2299.5,1433C 2295.89,1432.87 2292.39,1432.7 2289,1432.5C 2283.99,1423.42 2282.33,1413.75 2284,1403.5C 2291.19,1402.02 2298.36,1401.02 2305.5,1400.5 Z M 2279.5,1402.5 C 2278.97,1413.74 2281.31,1424.57 2286.5,1435C 2283.42,1437.29 2280.25,1439.46 2277,1441.5C 2265.7,1432.8 2252.86,1428.96 2238.5,1430C 2247.84,1414.33 2261.5,1405.17 2279.5,1402.5 Z M 2047.5,1429.5 C 2048.55,1429.35 2049.55,1429.52 2050.5,1430C 2030.36,1445.86 2019.19,1466.69 2017,1492.5C 2015.06,1510.5 2015.06,1528.5 2017,1546.5C 2019.04,1562.35 2021.7,1578.01 2025,1593.5C 2013.92,1576.35 2005.26,1558.01 1999,1538.5C 1990.48,1510.11 1993.48,1483.11 2008,1457.5C 2017.98,1443.6 2031.15,1434.27 2047.5,1429.5 Z M 2057.5,1430.5 C 2058.5,1430.47 2059.16,1430.97 2059.5,1432C 2053.13,1440.76 2049.3,1450.59 2048,1461.5C 2040.71,1514.25 2037.04,1567.25 2037,1620.5C 2030.89,1597.74 2025.89,1574.74 2022,1551.5C 2020.48,1533.19 2020.15,1514.86 2021,1496.5C 2022.86,1472.62 2032.36,1452.46 2049.5,1436C 2052.41,1434.39 2055.07,1432.56 2057.5,1430.5 Z M 2236.5,1436.5 C 2249.28,1434.95 2260.95,1437.79 2271.5,1445C 2269.17,1446.83 2266.83,1448.67 2264.5,1450.5C 2257.2,1448.87 2251.03,1450.87 2246,1456.5C 2243.04,1462.93 2239.2,1468.77 2234.5,1474C 2225.83,1479 2217.17,1484 2208.5,1489C 2191.27,1502.64 2183.1,1520.47 2184,1542.5C 2185.23,1545.95 2186.73,1549.29 2188.5,1552.5C 2177.13,1551.79 2166.13,1553.79 2155.5,1558.5C 2154.19,1557.69 2153.02,1556.69 2152,1555.5C 2141.4,1531.77 2140.73,1507.77 2150,1483.5C 2153.74,1489.07 2158.57,1493.41 2164.5,1496.5C 2165.17,1496.17 2165.83,1495.83 2166.5,1495.5C 2171.12,1498.98 2176.12,1501.64 2181.5,1503.5C 2181.65,1502.45 2181.48,1501.45 2181,1500.5C 2170.25,1494.41 2161.41,1486.25 2154.5,1476C 2162.07,1465.75 2170.41,1456.09 2179.5,1447C 2185.34,1443.46 2191.67,1441.96 2198.5,1442.5C 2204.09,1442.45 2209.59,1443.12 2215,1444.5C 2216.37,1444.29 2217.7,1443.96 2219,1443.5C 2220.64,1445.14 2222.31,1446.81 2224,1448.5C 2224.87,1447.89 2225.37,1447.06 2225.5,1446C 2224.38,1444.61 2223.88,1443.11 2224,1441.5C 2231.86,1447.56 2235.36,1455.56 2234.5,1465.5C 2235.5,1465.5 2236.5,1465.5 2237.5,1465.5C 2238.75,1455.17 2235.42,1446.67 2227.5,1440C 2230.57,1438.7 2233.57,1437.54 2236.5,1436.5 Z M 2054.5,1453.5 C 2055.27,1447.62 2057.44,1442.28 2061,1437.5C 2060.69,1443.61 2058.52,1448.94 2054.5,1453.5 Z M 2288.5,1442.5 C 2293.43,1440.87 2298.09,1441.71 2302.5,1445C 2318.26,1457.13 2333.09,1470.3 2347,1484.5C 2354.49,1497.6 2356.83,1511.6 2354,1526.5C 2354.14,1503.26 2344.3,1485.76 2324.5,1474C 2316.17,1465 2307.83,1456 2299.5,1447C 2296.27,1444.42 2292.61,1442.92 2288.5,1442.5 Z M 2457.5,1441.5 C 2458.31,1443.29 2458.81,1445.29 2459,1447.5C 2459.77,1471.57 2457.1,1495.24 2451,1518.5C 2450.33,1513.17 2450.33,1507.83 2451,1502.5C 2452.47,1497.94 2453.31,1493.28 2453.5,1488.5C 2451.32,1476.09 2449.99,1463.59 2449.5,1451C 2451.99,1447.68 2454.65,1444.51 2457.5,1441.5 Z M 2373.5,1443.5 C 2378.82,1450.59 2382.32,1458.59 2384,1467.5C 2386.26,1478.74 2387.26,1490.07 2387,1501.5C 2386.58,1500.33 2385.91,1499.33 2385,1498.5C 2384.55,1479.41 2380.72,1461.08 2373.5,1443.5 Z M 2283.5,1444.5 C 2288.96,1445.56 2293.96,1447.73 2298.5,1451C 2304.87,1457.71 2310.87,1464.71 2316.5,1472C 2323.94,1477.47 2331.11,1483.31 2338,1489.5C 2345.63,1498.08 2349.3,1508.08 2349,1519.5C 2345.42,1503.13 2336.59,1490.63 2322.5,1482C 2315.06,1473.81 2307.4,1465.81 2299.5,1458C 2292.75,1453.64 2285.42,1450.64 2277.5,1449C 2279.39,1447.24 2281.39,1445.74 2283.5,1444.5 Z M 2383.5,1452.5 C 2381.94,1450.39 2380.61,1448.06 2379.5,1445.5C 2380.32,1444.61 2381.32,1444.28 2382.5,1444.5C 2382.83,1447.17 2383.17,1449.83 2383.5,1452.5 Z M 2011.5,1445.5 C 1992.98,1467.91 1986.15,1493.58 1991,1522.5C 1993.11,1535.62 1996.78,1548.29 2002,1560.5C 2012.19,1578.88 2021.86,1597.55 2031,1616.5C 2033.11,1626.42 2034.61,1636.42 2035.5,1646.5C 2031.46,1635.23 2027.29,1623.89 2023,1612.5C 2014,1593.83 2005,1575.17 1996,1556.5C 1983.68,1526.26 1982.35,1495.6 1992,1464.5C 1996.4,1455.93 2002.9,1449.6 2011.5,1445.5 Z M 2385.5,1446.5 C 2386.1,1445.86 2386.93,1445.53 2388,1445.5C 2394.16,1446.72 2400.32,1447.89 2406.5,1449C 2408.78,1449.23 2410.78,1450.07 2412.5,1451.5C 2403.39,1468.72 2396.22,1486.72 2391,1505.5C 2391.51,1493.19 2391.51,1480.86 2391,1468.5C 2389.77,1460.89 2387.93,1453.56 2385.5,1446.5 Z M 2340.5,1472.5 C 2330.71,1464.54 2321.04,1456.38 2311.5,1448C 2320.49,1448.25 2327.66,1452.08 2333,1459.5C 2336.03,1463.56 2338.53,1467.89 2340.5,1472.5 Z M 2397.5,1497.5 C 2402.03,1481.6 2408.36,1466.44 2416.5,1452C 2425.01,1452.62 2432.34,1455.95 2438.5,1462C 2431.18,1465.33 2424.52,1469.66 2418.5,1475C 2410.9,1482.09 2403.9,1489.59 2397.5,1497.5 Z M 2273.5,1453.5 C 2281.67,1452.97 2289.34,1455.13 2296.5,1460C 2304.53,1467.7 2312.2,1475.7 2319.5,1484C 2329.45,1489.28 2336.61,1497.11 2341,1507.5C 2345.91,1518.69 2348.24,1530.36 2348,1542.5C 2346.26,1533.11 2344.26,1523.78 2342,1514.5C 2339.78,1507.9 2335.95,1502.4 2330.5,1498C 2320,1492.5 2311,1485.17 2303.5,1476C 2298.5,1471.67 2293.5,1467.33 2288.5,1463C 2283.87,1459.19 2278.87,1456.02 2273.5,1453.5 Z M 2444.5,1452.5 C 2446.43,1455.14 2446.93,1458.14 2446,1461.5C 2444.26,1459.68 2442.76,1457.68 2441.5,1455.5C 2442.77,1454.71 2443.77,1453.71 2444.5,1452.5 Z M 2300.5,1493.5 C 2287.92,1488.21 2274.76,1485.88 2261,1486.5C 2244.87,1485.76 2231.54,1491.43 2221,1503.5C 2213.86,1513.46 2206.03,1522.79 2197.5,1531.5C 2207.4,1509.76 2223.4,1494.26 2245.5,1485C 2252.88,1479.24 2256.55,1471.57 2256.5,1462C 2256.06,1460.18 2255.72,1458.34 2255.5,1456.5C 2256.68,1456.28 2257.68,1456.61 2258.5,1457.5C 2259.6,1459.64 2260.6,1461.81 2261.5,1464C 2262.45,1464.48 2263.45,1464.65 2264.5,1464.5C 2264.58,1463.07 2264.25,1461.74 2263.5,1460.5C 2263.85,1459.3 2264.35,1459.3 2265,1460.5C 2267.21,1464.7 2268.04,1469.04 2267.5,1473.5C 2268.32,1475.11 2269.65,1475.78 2271.5,1475.5C 2271.41,1471.78 2271.24,1468.11 2271,1464.5C 2278.07,1477.08 2287.91,1486.74 2300.5,1493.5 Z M 2251.5,1459.5 C 2253.1,1466.16 2251.93,1472.49 2248,1478.5C 2241.19,1482.89 2234.03,1486.72 2226.5,1490C 2212.14,1501.2 2200.97,1515.04 2193,1531.5C 2193.42,1519.25 2198.25,1509.08 2207.5,1501C 2221.96,1492.86 2234.79,1482.69 2246,1470.5C 2248.37,1467.09 2250.21,1463.42 2251.5,1459.5 Z M 2290.5,1481.5 C 2282.12,1476.63 2276.62,1469.63 2274,1460.5C 2280.93,1466.36 2286.43,1473.36 2290.5,1481.5 Z M 2405.5,1494.5 C 2415.05,1482.44 2426.55,1472.77 2440,1465.5C 2443.37,1469.92 2444.87,1474.75 2444.5,1480C 2438.65,1480.55 2432.98,1481.88 2427.5,1484C 2420.15,1487.61 2412.82,1491.11 2405.5,1494.5 Z M 2307.5,1490.5 C 2299.03,1486.87 2293.2,1480.87 2290,1472.5C 2296.04,1478.37 2301.87,1484.37 2307.5,1490.5 Z M 2394.5,1510.5 C 2395.24,1508.57 2396.24,1506.74 2397.5,1505C 2411.93,1493.47 2428.26,1486.3 2446.5,1483.5C 2446.5,1486.5 2446.5,1489.5 2446.5,1492.5C 2427.91,1495.14 2410.58,1501.14 2394.5,1510.5 Z M 2300.5,1501.5 C 2307.79,1506.96 2314.29,1513.29 2320,1520.5C 2329.33,1533.48 2336.83,1547.48 2342.5,1562.5C 2338.74,1568.59 2333.74,1573.26 2327.5,1576.5C 2325.08,1565.33 2320.25,1555.33 2313,1546.5C 2306.79,1540.43 2301.79,1533.43 2298,1525.5C 2291.48,1519.87 2284.32,1519.04 2276.5,1523C 2265.42,1530.24 2257.08,1539.74 2251.5,1551.5C 2251.76,1554.03 2252.6,1556.36 2254,1558.5C 2261.61,1559.73 2269.27,1559.73 2277,1558.5C 2282.75,1560.2 2288.59,1561.04 2294.5,1561C 2295.17,1560.33 2295.83,1559.67 2296.5,1559C 2294.04,1555.54 2291.2,1552.37 2288,1549.5C 2286.27,1539.56 2289.77,1537.06 2298.5,1542C 2304.78,1549.41 2304.95,1556.91 2299,1564.5C 2295.97,1567.87 2292.63,1570.87 2289,1573.5C 2288.16,1577.33 2289.66,1578.83 2293.5,1578C 2302.26,1571.93 2307.76,1563.76 2310,1553.5C 2315.31,1560.44 2319.31,1568.11 2322,1576.5C 2323.01,1577.34 2324.18,1577.67 2325.5,1577.5C 2320.67,1582.51 2314.67,1585.35 2307.5,1586C 2287.73,1587.86 2268.06,1586.86 2248.5,1583C 2249.55,1581.61 2249.72,1580.11 2249,1578.5C 2238.45,1570.48 2226.61,1564.98 2213.5,1562C 2202.75,1557.08 2198.92,1548.91 2202,1537.5C 2210.57,1527.35 2218.91,1517.02 2227,1506.5C 2236.36,1496.57 2247.86,1491.74 2261.5,1492C 2243.83,1504.48 2231.33,1520.98 2224,1541.5C 2222.38,1548.02 2222.21,1554.52 2223.5,1561C 2224.94,1561.78 2226.28,1561.61 2227.5,1560.5C 2228.28,1542.97 2234.62,1527.81 2246.5,1515C 2247.17,1514.33 2247.83,1514.33 2248.5,1515C 2249.68,1516.9 2251.18,1518.4 2253,1519.5C 2254.26,1519.24 2255.26,1518.57 2256,1517.5C 2257.19,1520.53 2259.36,1522.2 2262.5,1522.5C 2262.51,1520.69 2262.01,1519.02 2261,1517.5C 2257.8,1514.63 2254.96,1511.46 2252.5,1508C 2262.33,1495.33 2275,1491.17 2290.5,1495.5C 2290.42,1496.93 2290.75,1498.26 2291.5,1499.5C 2293.08,1500.07 2294.58,1500.41 2296,1500.5C 2298.15,1506.3 2298.98,1512.3 2298.5,1518.5C 2299.5,1518.5 2300.5,1518.5 2301.5,1518.5C 2301.69,1512.79 2301.35,1507.12 2300.5,1501.5 Z M 2362.5,1494.5 C 2363.5,1494.5 2364.5,1494.5 2365.5,1494.5C 2365.7,1503.53 2364.7,1503.53 2362.5,1494.5 Z M 2368.5,1495.5 C 2372.14,1496.99 2375.47,1498.99 2378.5,1501.5C 2374.43,1510.44 2371.6,1519.77 2370,1529.5C 2368.78,1518.2 2368.28,1506.87 2368.5,1495.5 Z M 2445.5,1495.5 C 2446.04,1495.56 2446.38,1495.89 2446.5,1496.5C 2445.01,1502.39 2444.17,1508.39 2444,1514.5C 2436.99,1512.74 2429.82,1511.74 2422.5,1511.5C 2413.77,1512.23 2405.11,1513.06 2396.5,1514C 2401.51,1510.49 2406.84,1507.49 2412.5,1505C 2423.39,1501.03 2434.39,1497.86 2445.5,1495.5 Z M 2316.5,1497.5 C 2327.28,1502.03 2334.12,1510.03 2337,1521.5C 2338.53,1527.81 2339.53,1534.14 2340,1540.5C 2334.23,1524.95 2326.4,1510.62 2316.5,1497.5 Z M 2358.5,1503.5 C 2359.6,1505.28 2360.43,1507.28 2361,1509.5C 2362.56,1517.11 2363.73,1524.78 2364.5,1532.5C 2362.22,1536.45 2359.22,1539.78 2355.5,1542.5C 2357.86,1529.61 2358.86,1516.61 2358.5,1503.5 Z M 2375.5,1523.5 C 2376.42,1516.92 2378.25,1510.58 2381,1504.5C 2381.5,1505.5 2382,1506.5 2382.5,1507.5C 2380.14,1512.93 2377.81,1518.27 2375.5,1523.5 Z M 2136.5,1505.5 C 2137.38,1505.37 2138.04,1505.7 2138.5,1506.5C 2137.87,1510.28 2137.53,1514.11 2137.5,1518C 2137.65,1524.92 2138.15,1531.75 2139,1538.5C 2133.89,1530.11 2129.72,1521.27 2126.5,1512C 2129.73,1509.56 2133.06,1507.39 2136.5,1505.5 Z M 2140.5,1547.5 C 2128.36,1541.95 2116.36,1536.12 2104.5,1530C 2110.38,1524.15 2116.55,1518.65 2123,1513.5C 2127.52,1525.55 2133.36,1536.88 2140.5,1547.5 Z M 2031.5,1663.5 C 2027.58,1661.08 2024.08,1658.08 2021,1654.5C 2005.63,1626.81 1988.3,1600.48 1969,1575.5C 1952.66,1557.74 1933.16,1544.57 1910.5,1536C 1892.43,1528.81 1873.76,1523.81 1854.5,1521C 1899.64,1508.49 1938.48,1518.99 1971,1552.5C 1973.67,1556.5 1976.33,1560.5 1979,1564.5C 1997.05,1597.28 2014.55,1630.28 2031.5,1663.5 Z M 2411.5,1515.5 C 2422.62,1514.96 2433.62,1515.79 2444.5,1518C 2442.6,1527.36 2438.6,1535.69 2432.5,1543C 2431.83,1543.67 2431.17,1543.67 2430.5,1543C 2422.51,1529.82 2410.84,1521.82 2395.5,1519C 2400.95,1517.75 2406.29,1516.58 2411.5,1515.5 Z M 2045.5,1523.5 C 2048.88,1535.98 2050.21,1548.81 2049.5,1562C 2049.29,1589.34 2047.12,1616.51 2043,1643.5C 2040.81,1603.42 2041.64,1563.42 2045.5,1523.5 Z M 2401.5,1524.5 C 2414,1528.18 2422.83,1535.85 2428,1547.5C 2425.15,1549.6 2422.48,1551.93 2420,1554.5C 2418.89,1550.27 2417.22,1546.27 2415,1542.5C 2410.28,1536.62 2405.78,1530.62 2401.5,1524.5 Z M 2379.5,1551.5 C 2381.5,1542.84 2383.5,1534.17 2385.5,1525.5C 2390.15,1525.33 2394.15,1526.83 2397.5,1530C 2389.95,1535.96 2383.95,1543.12 2379.5,1551.5 Z M 1986.5,1648.5 C 1971.72,1640.28 1957.06,1631.78 1942.5,1623C 1941.6,1615.67 1937.6,1611.17 1930.5,1609.5C 1928.62,1610.09 1926.78,1610.76 1925,1611.5C 1908.1,1585.93 1888.27,1562.76 1865.5,1542C 1858.68,1536.75 1851.68,1531.75 1844.5,1527C 1869.49,1529.88 1891.49,1539.55 1910.5,1556C 1922.11,1566.6 1932.61,1578.1 1942,1590.5C 1939.38,1601.75 1943.88,1607.59 1955.5,1608C 1966.43,1621.09 1976.77,1634.59 1986.5,1648.5 Z M 1971.5,1660.5 C 1963.36,1657.88 1955.03,1656.05 1946.5,1655C 1938.83,1650.83 1931.49,1646.17 1924.5,1641C 1894.61,1611.31 1867.44,1579.47 1843,1545.5C 1841.09,1542.17 1839.59,1538.67 1838.5,1535C 1839.07,1530.73 1841.07,1529.73 1844.5,1532C 1862.73,1544.06 1878.89,1558.56 1893,1575.5C 1902.58,1587.65 1911.91,1599.99 1921,1612.5C 1920.14,1615.15 1919.64,1617.98 1919.5,1621C 1919.69,1628.02 1923.36,1631.52 1930.5,1631.5C 1932.1,1631.45 1933.6,1631.12 1935,1630.5C 1945.85,1642.19 1958.02,1652.19 1971.5,1660.5 Z M 2012.5,1649.5 C 1992.15,1637.32 1975.15,1621.48 1961.5,1602C 1964.82,1592.95 1961.66,1587.45 1952,1585.5C 1949.49,1586.86 1946.99,1587.2 1944.5,1586.5C 1927.89,1563.2 1906.89,1545.04 1881.5,1532C 1923.07,1540.36 1955.9,1561.86 1980,1596.5C 1991.86,1613.55 2002.69,1631.22 2012.5,1649.5 Z M 2381.5,1558.5 C 2384.96,1547.92 2391.13,1539.25 2400,1532.5C 2401.54,1534.47 2402.71,1536.63 2403.5,1539C 2395.06,1544.28 2387.72,1550.78 2381.5,1558.5 Z M 2140.5,1553.5 C 2125.4,1548.67 2110.06,1547.67 2094.5,1550.5C 2095.3,1543.91 2097.96,1538.24 2102.5,1533.5C 2113.68,1539.26 2125.01,1544.76 2136.5,1550C 2138.09,1550.95 2139.43,1552.12 2140.5,1553.5 Z M 1836.5,1543.5 C 1863.31,1581.78 1893.31,1616.94 1926.5,1649C 1925.5,1649.5 1924.5,1650 1923.5,1650.5C 1912.33,1643.75 1901,1637.25 1889.5,1631C 1863.62,1610.79 1846.12,1584.96 1837,1553.5C 1836.5,1550.18 1836.33,1546.85 1836.5,1543.5 Z M 2390.5,1554.5 C 2394.04,1549.28 2398.71,1545.61 2404.5,1543.5C 2404.76,1545.79 2404.42,1547.96 2403.5,1550C 2398.97,1551.01 2394.63,1552.51 2390.5,1554.5 Z M 2410.5,1543.5 C 2413.73,1547.45 2416.06,1551.95 2417.5,1557C 2415.3,1560.19 2412.8,1563.03 2410,1565.5C 2408.78,1565.14 2407.61,1564.64 2406.5,1564C 2409.89,1557.6 2411.22,1550.77 2410.5,1543.5 Z M 2357.5,1594.5 C 2358.88,1583.35 2360.21,1572.18 2361.5,1561C 2361.16,1556.94 2360.49,1552.94 2359.5,1549C 2359.63,1547.94 2360.13,1547.11 2361,1546.5C 2365.01,1562.95 2363.85,1578.95 2357.5,1594.5 Z M 2100.5,1552.5 C 2109.88,1552.22 2119.21,1552.72 2128.5,1554C 2133.05,1555.02 2137.39,1556.52 2141.5,1558.5C 2125.75,1563.02 2109.75,1564.68 2093.5,1563.5C 2093.34,1560.48 2093.5,1557.48 2094,1554.5C 2096.28,1553.88 2098.44,1553.22 2100.5,1552.5 Z M 2356.5,1552.5 C 2357.34,1555.33 2358.01,1558.33 2358.5,1561.5C 2357.55,1569.86 2356.38,1578.19 2355,1586.5C 2353.32,1579.08 2352.16,1571.58 2351.5,1564C 2352.46,1559.87 2354.13,1556.04 2356.5,1552.5 Z M 2401.5,1553.5 C 2402.55,1553.35 2403.55,1553.52 2404.5,1554C 2403.35,1557.29 2401.69,1560.29 2399.5,1563C 2391.49,1567.16 2383.82,1571.49 2376.5,1576C 2382.19,1565.48 2390.52,1557.98 2401.5,1553.5 Z M 2189.5,1562.5 C 2180.09,1560.96 2170.75,1561.29 2161.5,1563.5C 2169.27,1559.51 2177.61,1558.01 2186.5,1559C 2188.43,1559.42 2189.43,1560.59 2189.5,1562.5 Z M 2161.5,1563.5 C 2159.15,1565.34 2156.48,1566.67 2153.5,1567.5C 2155.58,1565.13 2158.25,1563.79 2161.5,1563.5 Z M 2215.5,1583.5 C 2208.38,1579.1 2201.05,1574.94 2193.5,1571C 2181.88,1566.54 2170.21,1566.38 2158.5,1570.5C 2165.97,1565.39 2174.3,1563.55 2183.5,1565C 2195.82,1568.53 2206.49,1574.69 2215.5,1583.5 Z M 2125.5,1565.5 C 2116.82,1571.27 2107.98,1576.93 2099,1582.5C 2097.19,1577.57 2095.69,1572.57 2094.5,1567.5C 2104.92,1567.85 2115.25,1567.18 2125.5,1565.5 Z M 2132.5,1566.5 C 2133.24,1566.37 2133.91,1566.54 2134.5,1567C 2124.83,1575.33 2115.83,1584.33 2107.5,1594C 2106.83,1594.67 2106.17,1594.67 2105.5,1594C 2102.55,1591.31 2101.55,1588.14 2102.5,1584.5C 2112.23,1577.97 2122.23,1571.97 2132.5,1566.5 Z M 2347.5,1566.5 C 2349.68,1575.58 2351.01,1584.91 2351.5,1594.5C 2351.73,1600.01 2350.9,1605.34 2349,1610.5C 2348.04,1598.07 2345.87,1585.91 2342.5,1574C 2344.41,1571.6 2346.08,1569.1 2347.5,1566.5 Z M 2141.5,1567.5 C 2135.74,1572.44 2131.24,1578.44 2128,1585.5C 2125.04,1593.99 2122.71,1602.66 2121,1611.5C 2116.83,1607.33 2112.67,1603.17 2108.5,1599C 2111.2,1595.96 2114.2,1593.3 2117.5,1591C 2117.17,1590.67 2116.83,1590.33 2116.5,1590C 2122.13,1583.36 2128.13,1577.03 2134.5,1571C 2136.58,1569.3 2138.91,1568.13 2141.5,1567.5 Z M 2153.5,1567.5 C 2153.03,1568.91 2152.03,1569.57 2150.5,1569.5C 2150.97,1568.09 2151.97,1567.43 2153.5,1567.5 Z M 1731.5,1570.5 C 1768.27,1569.73 1804.44,1574.73 1840,1585.5C 1841.95,1587.88 1843.78,1590.38 1845.5,1593C 1828.51,1587.75 1811.17,1583.42 1793.5,1580C 1772.77,1577.16 1752.1,1573.99 1731.5,1570.5 Z M 2150.5,1569.5 C 2150.03,1570.91 2149.03,1571.57 2147.5,1571.5C 2147.97,1570.09 2148.97,1569.43 2150.5,1569.5 Z M 2234.5,1599.5 C 2223.91,1596.37 2213.91,1591.87 2204.5,1586C 2177.99,1574.05 2158.83,1581.22 2147,1607.5C 2146.33,1611.5 2146.33,1615.5 2147,1619.5C 2148.88,1625.63 2151.04,1631.63 2153.5,1637.5C 2144.34,1628.67 2139,1617.84 2137.5,1605C 2140.16,1590 2148.49,1579.33 2162.5,1573C 2172.27,1569.55 2181.93,1569.88 2191.5,1574C 2205.9,1582.53 2220.23,1591.03 2234.5,1599.5 Z M 2217.5,1570.5 C 2227.18,1572.11 2235.85,1575.95 2243.5,1582C 2233.56,1581.2 2224.9,1577.37 2217.5,1570.5 Z M 2328.5,1727.5 C 2336.84,1720.33 2344.34,1712.33 2351,1703.5C 2356.3,1693.95 2360.63,1683.95 2364,1673.5C 2366.33,1669.83 2369.33,1666.83 2373,1664.5C 2373.61,1660.91 2372.11,1659.75 2368.5,1661C 2365.33,1662.83 2362.83,1665.33 2361,1668.5C 2356.77,1679.87 2351.77,1690.87 2346,1701.5C 2333.31,1718.18 2317.14,1730.35 2297.5,1738C 2267.81,1750.47 2237.81,1751.47 2207.5,1741C 2200.13,1737.96 2194.3,1733.13 2190,1726.5C 2188.35,1720.87 2185.85,1715.7 2182.5,1711C 2182.98,1709.99 2183.15,1708.82 2183,1707.5C 2186.71,1708.65 2190.54,1709.31 2194.5,1709.5C 2210.95,1708.22 2227.29,1706.05 2243.5,1703C 2244.82,1701.46 2244.49,1700.29 2242.5,1699.5C 2224.11,1704.13 2205.44,1705.97 2186.5,1705C 2184.37,1704.46 2182.37,1703.62 2180.5,1702.5C 2178.39,1696.76 2176.72,1690.93 2175.5,1685C 2184.01,1687.03 2192.67,1688.7 2201.5,1690C 2210.74,1690.81 2219.9,1690.31 2229,1688.5C 2241.15,1690.69 2253.32,1690.86 2265.5,1689C 2273.83,1686.67 2282.17,1684.33 2290.5,1682C 2297.37,1681.42 2304.04,1682.09 2310.5,1684C 2312.61,1674.42 2315.44,1664.92 2319,1655.5C 2323.54,1650.81 2328.71,1646.98 2334.5,1644C 2338.67,1639.83 2342.83,1635.67 2347,1631.5C 2356.73,1617.44 2366.06,1603.1 2375,1588.5C 2383.57,1577.47 2394.74,1571.63 2408.5,1571C 2421.83,1574.5 2429.83,1583 2432.5,1596.5C 2414.79,1597.68 2398.79,1603.51 2384.5,1614C 2383.66,1615.01 2383.33,1616.18 2383.5,1617.5C 2390.23,1614.3 2396.89,1610.8 2403.5,1607C 2411.99,1603.28 2420.83,1600.78 2430,1599.5C 2432.28,1599.95 2433.78,1601.28 2434.5,1603.5C 2428.95,1604.72 2423.62,1606.55 2418.5,1609C 2417.17,1610 2417.17,1611 2418.5,1612C 2423.67,1610.27 2429,1608.77 2434.5,1607.5C 2435.59,1633.49 2428.75,1657.16 2414,1678.5C 2412.13,1680.71 2409.96,1682.54 2407.5,1684C 2396.78,1688.35 2387.45,1694.69 2379.5,1703C 2364.34,1714.91 2347.34,1723.08 2328.5,1727.5 Z M 2156.5,1571.5 C 2147.37,1577.47 2140.54,1585.47 2136,1595.5C 2133.43,1606 2134.76,1616 2140,1625.5C 2146.02,1634.34 2152.19,1643.01 2158.5,1651.5C 2138.99,1636.48 2131.16,1616.82 2135,1592.5C 2139.41,1582.59 2146.57,1575.59 2156.5,1571.5 Z M 2087.5,1573.5 C 2088.5,1573.47 2089.16,1573.97 2089.5,1575C 2091.9,1584.14 2095.9,1592.47 2101.5,1600C 2095.8,1606.56 2090.97,1613.73 2087,1621.5C 2081.67,1633.5 2076.33,1645.5 2071,1657.5C 2066.84,1665.83 2062.17,1673.83 2057,1681.5C 2056.33,1680.83 2055.67,1680.17 2055,1679.5C 2053.83,1643.85 2062.49,1610.85 2081,1580.5C 2083.37,1578.3 2085.54,1575.96 2087.5,1573.5 Z M 2431.5,1575.5 C 2442.41,1578.46 2452.41,1583.29 2461.5,1590C 2460.59,1593.32 2459.26,1596.49 2457.5,1599.5C 2448.49,1591.82 2439.82,1583.82 2431.5,1575.5 Z M 2338.5,1576.5 C 2339.93,1576.88 2340.76,1577.88 2341,1579.5C 2342.74,1587.12 2343.74,1594.78 2344,1602.5C 2339.87,1595.74 2335.37,1589.24 2330.5,1583C 2333.42,1581.05 2336.09,1578.89 2338.5,1576.5 Z M 1737.5,1578.5 C 1738.1,1577.86 1738.93,1577.53 1740,1577.5C 1759.07,1579.56 1777.57,1584.06 1795.5,1591C 1821.26,1600.59 1846.26,1611.92 1870.5,1625C 1868.17,1625.67 1865.83,1625.67 1863.5,1625C 1823.75,1603.47 1781.75,1587.97 1737.5,1578.5 Z M 2216.5,1578.5 C 2223.23,1581.52 2229.23,1585.52 2234.5,1590.5C 2227.8,1587.49 2221.8,1583.49 2216.5,1578.5 Z M 2215.5,1583.5 C 2217.03,1583.43 2218.03,1584.09 2218.5,1585.5C 2216.97,1585.57 2215.97,1584.91 2215.5,1583.5 Z M 1791.5,1584.5 C 1811.41,1587.48 1830.74,1592.64 1849.5,1600C 1853.12,1605.29 1857.12,1610.29 1861.5,1615C 1838.54,1604.02 1815.21,1593.85 1791.5,1584.5 Z M 2342.5,1610.5 C 2337.69,1600.86 2330.35,1593.69 2320.5,1589C 2322.75,1587.62 2324.92,1586.12 2327,1584.5C 2333.98,1592.14 2339.15,1600.81 2342.5,1610.5 Z M 2180.5,1588.5 C 2190.1,1588.42 2198.77,1591.26 2206.5,1597C 2217.8,1600.24 2228.8,1604.24 2239.5,1609C 2223.9,1606.96 2208.23,1605.12 2192.5,1603.5C 2179.07,1602.94 2166.74,1606.27 2155.5,1613.5C 2156.22,1604.31 2160.88,1597.47 2169.5,1593C 2173.16,1591.18 2176.82,1589.68 2180.5,1588.5 Z M 2249.5,1594.5 C 2246.77,1593.29 2244.44,1591.45 2242.5,1589C 2244.13,1588.51 2245.8,1588.34 2247.5,1588.5C 2247.7,1590.69 2248.37,1592.69 2249.5,1594.5 Z M 2361.5,1597.5 C 2362.17,1594.5 2362.83,1591.5 2363.5,1588.5C 2364.87,1588.34 2366.21,1588.51 2367.5,1589C 2365.6,1591.99 2363.6,1594.82 2361.5,1597.5 Z M 2261.5,1598.5 C 2257.13,1596.97 2253.8,1594.13 2251.5,1590C 2252.9,1589.41 2254.23,1589.57 2255.5,1590.5C 2257.91,1592.9 2259.91,1595.57 2261.5,1598.5 Z M 2260.5,1591.5 C 2260.56,1590.96 2260.89,1590.62 2261.5,1590.5C 2266.11,1591.49 2270.78,1592.16 2275.5,1592.5C 2275.67,1596.18 2275.5,1599.85 2275,1603.5C 2269.23,1600.54 2264.39,1596.54 2260.5,1591.5 Z M 2339.5,1614.5 C 2337,1612.17 2334.33,1610 2331.5,1608C 2324.86,1605.68 2318.86,1602.35 2313.5,1598C 2314.62,1595.59 2316.12,1593.42 2318,1591.5C 2328.47,1596.14 2335.64,1603.8 2339.5,1614.5 Z M 2278.5,1592.5 C 2281.57,1592.18 2284.57,1592.52 2287.5,1593.5C 2285.57,1596.94 2283.07,1599.94 2280,1602.5C 2279.39,1599.17 2278.89,1595.84 2278.5,1592.5 Z M 2291.5,1592.5 C 2295.24,1592.46 2295.41,1593.13 2292,1594.5C 2291.54,1593.91 2291.37,1593.24 2291.5,1592.5 Z M 2446.5,1594.5 C 2449.96,1597.46 2453.3,1600.63 2456.5,1604C 2455.28,1605.65 2454.45,1607.48 2454,1609.5C 2451.47,1604.45 2448.97,1599.45 2446.5,1594.5 Z M 2304.5,1601.5 C 2301.32,1614.53 2295.49,1626.19 2287,1636.5C 2281.52,1645.12 2278.02,1654.46 2276.5,1664.5C 2276.61,1666.64 2277.28,1668.47 2278.5,1670C 2284.55,1669.83 2290.55,1668.99 2296.5,1667.5C 2288.25,1672.03 2279.92,1676.36 2271.5,1680.5C 2271.77,1659.52 2277.6,1640.19 2289,1622.5C 2293.7,1615.08 2298.87,1608.08 2304.5,1601.5 Z M 2440.5,1601.5 C 2443.59,1608.2 2445.25,1615.37 2445.5,1623C 2442.08,1640.72 2441.08,1658.55 2442.5,1676.5C 2436.19,1677.58 2429.85,1678.58 2423.5,1679.5C 2422.83,1679.17 2422.17,1678.83 2421.5,1678.5C 2436.14,1654.96 2442.47,1629.29 2440.5,1601.5 Z M 2291.5,1602.5 C 2270.18,1625.5 2259.02,1652.83 2258,1684.5C 2254.75,1658.48 2260.75,1634.82 2276,1613.5C 2280.79,1609.2 2285.95,1605.53 2291.5,1602.5 Z M 2311.5,1602.5 C 2318.48,1605.99 2325.48,1609.49 2332.5,1613C 2335.6,1615.39 2337.76,1618.22 2339,1621.5C 2336.46,1619.65 2333.62,1618.48 2330.5,1618C 2322.52,1617.06 2314.52,1616.22 2306.5,1615.5C 2308.37,1611.22 2310.04,1606.88 2311.5,1602.5 Z M 2063.5,1680.5 C 2073.71,1662.08 2082.88,1643.08 2091,1623.5C 2094.84,1616.49 2099.17,1609.83 2104,1603.5C 2108.49,1607.14 2110.99,1611.81 2111.5,1617.5C 2111.23,1627.92 2109.06,1637.92 2105,1647.5C 2104.67,1653.5 2104.33,1659.5 2104,1665.5C 2092.29,1678.44 2077.79,1685.6 2060.5,1687C 2080.22,1678.62 2094.72,1664.78 2104,1645.5C 2104.62,1643.54 2104.12,1641.87 2102.5,1640.5C 2097.93,1647.97 2093.1,1655.3 2088,1662.5C 2081.11,1670.35 2072.94,1676.35 2063.5,1680.5 Z M 2297.5,1603.5 C 2283.75,1621 2274.25,1640.67 2269,1662.5C 2267.95,1669.13 2267.45,1675.79 2267.5,1682.5C 2266.07,1682.42 2264.74,1682.75 2263.5,1683.5C 2262.82,1657.04 2270.65,1633.38 2287,1612.5C 2290.1,1608.89 2293.6,1605.89 2297.5,1603.5 Z M 2131.5,1619.5 C 2130.54,1619.05 2129.71,1618.38 2129,1617.5C 2128.33,1613.83 2128.33,1610.17 2129,1606.5C 2130.34,1610.72 2131.18,1615.05 2131.5,1619.5 Z M 2186.5,1606.5 C 2192.15,1607.05 2197.82,1607.55 2203.5,1608C 2185.13,1609.43 2170.29,1617.27 2159,1631.5C 2157.63,1627.72 2156.46,1623.89 2155.5,1620C 2155.44,1618.29 2156.11,1616.96 2157.5,1616C 2166.57,1610.7 2176.24,1607.53 2186.5,1606.5 Z M 2209.5,1610.5 C 2218.18,1611.15 2226.84,1611.99 2235.5,1613C 2219.43,1612.77 2203.76,1615.11 2188.5,1620C 2176.95,1624.62 2169.11,1632.79 2165,1644.5C 2162.97,1641.78 2161.47,1638.78 2160.5,1635.5C 2168.03,1624.39 2178.37,1617.23 2191.5,1614C 2197.58,1612.5 2203.58,1611.34 2209.5,1610.5 Z M 2218.5,1616.5 C 2225.51,1616.33 2232.51,1616.5 2239.5,1617C 2224.06,1619.26 2209.39,1623.93 2195.5,1631C 2185.46,1637.59 2178.12,1646.42 2173.5,1657.5C 2170.11,1655.62 2168.11,1652.79 2167.5,1649C 2169.74,1639.76 2174.74,1632.43 2182.5,1627C 2193.84,1620.78 2205.84,1617.28 2218.5,1616.5 Z M 2117.5,1617.5 C 2119.92,1618.09 2121.59,1619.59 2122.5,1622C 2120.89,1621.98 2119.23,1621.81 2117.5,1621.5C 2117.5,1620.17 2117.5,1618.83 2117.5,1617.5 Z M 2257.5,1619.5 C 2258.24,1619.37 2258.91,1619.54 2259.5,1620C 2240.24,1636.23 2230.24,1657.06 2229.5,1682.5C 2227.5,1682.17 2225.5,1681.83 2223.5,1681.5C 2224.47,1654.88 2235.8,1634.21 2257.5,1619.5 Z M 2304.5,1619.5 C 2314.75,1618.86 2324.75,1620.02 2334.5,1623C 2323.55,1622.7 2312.88,1624.2 2302.5,1627.5C 2302.17,1627.17 2301.83,1626.83 2301.5,1626.5C 2302.79,1624.26 2303.79,1621.93 2304.5,1619.5 Z M 2226.5,1622.5 C 2228.2,1622.34 2229.87,1622.51 2231.5,1623C 2213.51,1629.99 2200.35,1642.15 2192,1659.5C 2191.18,1661.79 2190.51,1664.12 2190,1666.5C 2186.39,1662.95 2182.23,1660.28 2177.5,1658.5C 2183.01,1644.16 2193.01,1634.33 2207.5,1629C 2213.89,1626.66 2220.23,1624.49 2226.5,1622.5 Z M 1640.5,1624.5 C 1681.08,1625.18 1720.08,1633.35 1757.5,1649C 1774.19,1656.1 1790.69,1663.6 1807,1671.5C 1807.49,1673.13 1807.66,1674.8 1807.5,1676.5C 1775.18,1668.56 1743.84,1657.73 1713.5,1644C 1684,1633.81 1653.67,1627.81 1622.5,1626C 1628.68,1625.83 1634.68,1625.33 1640.5,1624.5 Z M 2116.5,1624.5 C 2121.96,1625.13 2124.8,1628.13 2125,1633.5C 2122.31,1632.29 2119.48,1631.62 2116.5,1631.5C 2116.5,1629.17 2116.5,1626.83 2116.5,1624.5 Z M 2244.5,1624.5 C 2229.84,1639.82 2221.68,1658.16 2220,1679.5C 2216.08,1679.9 2212.25,1679.07 2208.5,1677C 2214.13,1663.1 2219.97,1649.27 2226,1635.5C 2231.31,1630.35 2237.47,1626.69 2244.5,1624.5 Z M 2167.5,1670.5 C 2157.64,1660.46 2147.8,1650.13 2138,1639.5C 2136.33,1636.83 2134.67,1634.17 2133,1631.5C 2132.37,1629.36 2132.7,1627.36 2134,1625.5C 2135.89,1630.94 2138.55,1635.94 2142,1640.5C 2147.86,1647.27 2154.19,1653.61 2161,1659.5C 2163.69,1662.89 2165.86,1666.56 2167.5,1670.5 Z M 2318.5,1626.5 C 2324.18,1626.33 2329.84,1626.5 2335.5,1627C 2320.07,1630.88 2305.4,1636.72 2291.5,1644.5C 2291.17,1644.17 2290.83,1643.83 2290.5,1643.5C 2292.46,1639.74 2294.79,1636.24 2297.5,1633C 2304.4,1630.09 2311.4,1627.92 2318.5,1626.5 Z M 2257.5,1627.5 C 2245.52,1643.36 2239.69,1661.36 2240,1681.5C 2237.89,1683.29 2235.39,1683.96 2232.5,1683.5C 2233.54,1665.89 2239.04,1649.89 2249,1635.5C 2251.7,1632.63 2254.54,1629.96 2257.5,1627.5 Z M 2262.5,1628.5 C 2255.22,1646.44 2252.22,1665.11 2253.5,1684.5C 2250.17,1684.5 2246.83,1684.5 2243.5,1684.5C 2242.3,1663.09 2248.64,1644.42 2262.5,1628.5 Z M 1609.5,1631.5 C 1610.96,1630.84 1612.63,1630.51 1614.5,1630.5C 1628.84,1631.33 1642.5,1634.83 1655.5,1641C 1676.78,1651.76 1698.78,1660.76 1721.5,1668C 1750.26,1675.77 1779.26,1682.44 1808.5,1688C 1809.46,1691.39 1809.79,1694.89 1809.5,1698.5C 1770.98,1691.27 1733.65,1680.1 1697.5,1665C 1673.99,1653.83 1649.99,1643.83 1625.5,1635C 1620.29,1633.2 1614.96,1632.03 1609.5,1631.5 Z M 1649.5,1634.5 C 1650.62,1633.84 1651.95,1633.51 1653.5,1633.5C 1666.33,1635.17 1679,1637.67 1691.5,1641C 1717.73,1650.08 1743.73,1659.74 1769.5,1670C 1781.99,1674.27 1794.66,1677.94 1807.5,1681C 1808.45,1681.72 1808.62,1682.55 1808,1683.5C 1771.21,1676.93 1735.04,1667.76 1699.5,1656C 1682.92,1648.54 1666.25,1641.37 1649.5,1634.5 Z M 1893.5,1652.5 C 1861.12,1648.78 1835.62,1660.11 1817,1686.5C 1815.85,1683.26 1815.01,1679.93 1814.5,1676.5C 1813.45,1665.1 1817.45,1655.94 1826.5,1649C 1836.16,1642.67 1846.49,1637.67 1857.5,1634C 1859.5,1633.33 1861.5,1633.33 1863.5,1634C 1874.07,1639.44 1884.07,1645.61 1893.5,1652.5 Z M 2218.5,1633.5 C 2219.04,1633.56 2219.38,1633.89 2219.5,1634.5C 2213.82,1647.87 2208.16,1661.2 2202.5,1674.5C 2198.39,1673.22 2195.39,1670.72 2193.5,1667C 2195.47,1659.9 2198.63,1653.4 2203,1647.5C 2207.76,1642.23 2212.93,1637.56 2218.5,1633.5 Z M 1945.5,1634.5 C 1970.61,1647.22 1994.61,1661.72 2017.5,1678C 2012.33,1677.16 2007.33,1675.5 2002.5,1673C 1987.67,1665.09 1973.33,1656.42 1959.5,1647C 1954.64,1642.97 1949.97,1638.8 1945.5,1634.5 Z M 2132.5,1644.5 C 2125.86,1643.83 2119.19,1643.33 2112.5,1643C 2113.44,1639.81 2114.94,1636.98 2117,1634.5C 2121.01,1635.34 2124.84,1636.67 2128.5,1638.5C 2130.28,1640.26 2131.61,1642.26 2132.5,1644.5 Z M 2318.5,1636.5 C 2307.95,1644.36 2296.79,1651.36 2285,1657.5C 2284.97,1653.95 2286.3,1650.95 2289,1648.5C 2298.8,1644.35 2308.63,1640.35 2318.5,1636.5 Z M 2324.5,1637.5 C 2317.37,1645.13 2310.04,1652.63 2302.5,1660C 2296.38,1663.88 2289.71,1666.04 2282.5,1666.5C 2282.21,1664.71 2282.55,1663.05 2283.5,1661.5C 2288.29,1659.61 2292.95,1657.44 2297.5,1655C 2306.13,1648.52 2315.13,1642.69 2324.5,1637.5 Z M 1989.5,1643.5 C 1999.14,1649.99 2008.8,1656.49 2018.5,1663C 2024.17,1667.33 2029.17,1672.33 2033.5,1678C 2022.22,1670.45 2010.55,1663.11 1998.5,1656C 1994.87,1652.22 1991.87,1648.05 1989.5,1643.5 Z M 2114.5,1646.5 C 2119.91,1646.23 2125.25,1646.73 2130.5,1648C 2123.44,1649.85 2116.44,1651.51 2109.5,1653C 2110.23,1651.6 2110.73,1650.1 2111,1648.5C 2112.3,1647.92 2113.47,1647.25 2114.5,1646.5 Z M 2132.5,1651.5 C 2136,1650.95 2139,1651.79 2141.5,1654C 2140.83,1654.17 2140.17,1654.33 2139.5,1654.5C 2133.55,1654.32 2127.55,1654.16 2121.5,1654C 2125.31,1653.2 2128.98,1652.37 2132.5,1651.5 Z M 1933.5,1677.5 C 1912.04,1672.74 1890.38,1671.4 1868.5,1673.5C 1860.89,1674.76 1853.56,1676.92 1846.5,1680C 1836.63,1685.21 1827.3,1691.21 1818.5,1698C 1817.52,1698.59 1816.85,1698.26 1816.5,1697C 1829.57,1671.03 1850.74,1657.2 1880,1655.5C 1888.89,1656.4 1897.72,1657.9 1906.5,1660C 1915.56,1665.86 1924.56,1671.69 1933.5,1677.5 Z M 2122.5,1657.5 C 2129.51,1657.33 2136.51,1657.5 2143.5,1658C 2146.02,1658.52 2148.02,1659.85 2149.5,1662C 2136.97,1662.63 2124.97,1665.47 2113.5,1670.5C 2111.3,1667.55 2110.3,1664.22 2110.5,1660.5C 2114.61,1659.49 2118.61,1658.49 2122.5,1657.5 Z M 2309.5,1662.5 C 2308.95,1667.7 2307.62,1672.7 2305.5,1677.5C 2300.96,1676.05 2296.29,1675.22 2291.5,1675C 2298.05,1671.56 2304.05,1667.4 2309.5,1662.5 Z M 2174.5,1664.5 C 2180.61,1666.61 2185.94,1669.94 2190.5,1674.5C 2183.55,1673.7 2178.22,1670.36 2174.5,1664.5 Z M 2136.5,1666.5 C 2137.87,1666.34 2139.21,1666.51 2140.5,1667C 2132.36,1669.65 2124.86,1673.49 2118,1678.5C 2117.22,1676.71 2116.05,1675.21 2114.5,1674C 2121.71,1670.76 2129.04,1668.26 2136.5,1666.5 Z M 1937.5,1667.5 C 1939.56,1667.69 1941.56,1668.19 1943.5,1669C 1950.66,1672.75 1957.66,1676.75 1964.5,1681C 1962.78,1681.35 1961.12,1681.85 1959.5,1682.5C 1951.34,1678.25 1943.34,1673.75 1935.5,1669C 1936.42,1668.72 1937.08,1668.22 1937.5,1667.5 Z M 2149.5,1667.5 C 2151.2,1667.34 2152.87,1667.51 2154.5,1668C 2155.83,1668.67 2155.83,1669.33 2154.5,1670C 2144.24,1673.71 2135.41,1679.54 2128,1687.5C 2125.2,1685.71 2122.7,1683.54 2120.5,1681C 2129.54,1674.84 2139.21,1670.34 2149.5,1667.5 Z M 2105.5,1669.5 C 2108.27,1675.54 2111.94,1681.04 2116.5,1686C 2109.26,1693.12 2100.59,1697.29 2090.5,1698.5C 2080.09,1697.1 2069.76,1695.27 2059.5,1693C 2077.72,1690.72 2093.05,1682.89 2105.5,1669.5 Z M 2174.5,1671.5 C 2182.36,1676.47 2191.02,1679.31 2200.5,1680C 2201.06,1680.38 2201.39,1680.88 2201.5,1681.5C 2193.83,1681.52 2186.5,1680.02 2179.5,1677C 2177.63,1675.3 2175.96,1673.46 2174.5,1671.5 Z M 1606.5,1673.5 C 1617.78,1672.48 1629.12,1673.32 1640.5,1676C 1662.66,1681.05 1684.66,1686.72 1706.5,1693C 1738.44,1700.37 1770.77,1705.03 1803.5,1707C 1807.86,1707.75 1812.03,1708.91 1816,1710.5C 1819,1710.17 1822,1709.83 1825,1709.5C 1842.1,1711.92 1859.27,1713.75 1876.5,1715C 1834.11,1719.88 1791.78,1719.55 1749.5,1714C 1737.36,1711.97 1725.36,1709.3 1713.5,1706C 1687.27,1696.72 1660.94,1687.72 1634.5,1679C 1625.32,1676.33 1615.98,1674.5 1606.5,1673.5 Z M 2156.5,1672.5 C 2157.24,1672.37 2157.91,1672.54 2158.5,1673C 2149.29,1678.59 2142.79,1686.42 2139,1696.5C 2136.41,1694.45 2133.91,1692.28 2131.5,1690C 2138.14,1681.68 2146.48,1675.85 2156.5,1672.5 Z M 1754.5,1719.5 C 1730.56,1717.4 1706.9,1713.57 1683.5,1708C 1656.99,1700.61 1630.65,1692.61 1604.5,1684C 1593.97,1681.03 1583.3,1678.7 1572.5,1677C 1590.59,1675.2 1608.59,1676.54 1626.5,1681C 1653.11,1689.2 1679.44,1698.2 1705.5,1708C 1721.74,1712.81 1738.07,1716.64 1754.5,1719.5 Z M 1836.5,1691.5 C 1843.05,1686.39 1850.38,1682.56 1858.5,1680C 1876.42,1675.43 1894.42,1674.77 1912.5,1678C 1922.55,1679.74 1932.55,1681.74 1942.5,1684C 1928.24,1686.03 1913.91,1686.69 1899.5,1686C 1895.36,1679.59 1889.69,1677.92 1882.5,1681C 1881.31,1682.02 1880.31,1683.19 1879.5,1684.5C 1864.74,1684.51 1850.41,1686.85 1836.5,1691.5 Z M 2160.5,1675.5 C 2161.5,1675.47 2162.16,1675.97 2162.5,1677C 2157.38,1686.06 2153.55,1695.56 2151,1705.5C 2147.69,1703.35 2144.85,1700.69 2142.5,1697.5C 2146.15,1688.18 2152.15,1680.84 2160.5,1675.5 Z M 2440.5,1682.5 C 2441.38,1682.37 2442.04,1682.7 2442.5,1683.5C 2441.27,1695.44 2440.43,1707.44 2440,1719.5C 2438.88,1716.86 2438.38,1714.03 2438.5,1711C 2439.06,1701.48 2439.73,1691.98 2440.5,1682.5 Z M 2167.5,1683.5 C 2168.06,1688.33 2169.06,1693.16 2170.5,1698C 2170.17,1698.33 2169.83,1698.67 2169.5,1699C 2171.54,1703.36 2173.04,1707.86 2174,1712.5C 2174.89,1716.15 2175.22,1719.82 2175,1723.5C 2173.26,1722.04 2171.42,1720.71 2169.5,1719.5C 2167.28,1713.39 2165.94,1707.06 2165.5,1700.5C 2166.31,1694.84 2166.98,1689.18 2167.5,1683.5 Z M 2429.5,1683.5 C 2430.5,1683.5 2431.5,1683.5 2432.5,1683.5C 2432.88,1688.3 2432.38,1692.96 2431,1697.5C 2429.61,1692.78 2429.11,1688.12 2429.5,1683.5 Z M 1992.5,1684.5 C 1995.02,1684.13 1997.02,1684.96 1998.5,1687C 1994.37,1687.85 1990.37,1687.52 1986.5,1686C 1988.71,1685.81 1990.71,1685.31 1992.5,1684.5 Z M 2162.5,1684.5 C 2162.41,1694.36 2162.58,1704.36 2163,1714.5C 2160.17,1712.33 2157.33,1710.17 2154.5,1708C 2155.77,1700.01 2158.44,1692.18 2162.5,1684.5 Z M 2420.5,1687.5 C 2422.03,1690.97 2422.86,1694.64 2423,1698.5C 2421.26,1696.68 2419.76,1694.68 2418.5,1692.5C 2419.46,1690.92 2420.12,1689.26 2420.5,1687.5 Z M 1906.5,1694.5 C 1907.96,1693.84 1909.63,1693.51 1911.5,1693.5C 1922.49,1694.76 1933.49,1695.92 1944.5,1697C 1939.17,1700 1933.83,1703 1928.5,1706C 1895.02,1708.01 1861.68,1706.35 1828.5,1701C 1843.59,1691.82 1859.92,1688.32 1877.5,1690.5C 1880.44,1700.14 1886.44,1702.97 1895.5,1699C 1897.35,1697.32 1899.02,1695.48 1900.5,1693.5C 1902.41,1694.35 1904.41,1694.68 1906.5,1694.5 Z M 1949.5,1690.5 C 1953.05,1690.09 1956.38,1690.59 1959.5,1692C 1953.83,1692.67 1948.17,1692.67 1942.5,1692C 1945.04,1691.81 1947.37,1691.31 1949.5,1690.5 Z M 2119.5,1693.5 C 2127.56,1695.2 2134.56,1699.03 2140.5,1705C 2130.6,1704.89 2120.94,1703.22 2111.5,1700C 2114.42,1698.05 2117.09,1695.89 2119.5,1693.5 Z M 2401.5,1694.5 C 2392.45,1705.39 2383.95,1716.72 2376,1728.5C 2359.5,1743.87 2341.34,1746.37 2321.5,1736C 2350.18,1730.33 2374.85,1717.33 2395.5,1697C 2397.22,1695.44 2399.22,1694.61 2401.5,1694.5 Z M 1964.5,1697.5 C 1969.74,1697.02 1974.74,1697.86 1979.5,1700C 1977.47,1700.5 1975.47,1700.33 1973.5,1699.5C 1964.3,1702.3 1954.97,1704.14 1945.5,1705C 1951.85,1702.09 1958.19,1699.59 1964.5,1697.5 Z M 2401.5,1700.5 C 2401.57,1702.03 2400.91,1703.03 2399.5,1703.5C 2399.43,1701.97 2400.09,1700.97 2401.5,1700.5 Z M 2105.5,1702.5 C 2119.5,1706.83 2133.83,1709.67 2148.5,1711C 2151.02,1712.76 2153.35,1714.76 2155.5,1717C 2139.12,1719.1 2122.79,1718.77 2106.5,1716C 2104.22,1712.05 2101.55,1708.39 2098.5,1705C 2101.1,1704.61 2103.44,1703.78 2105.5,1702.5 Z M 2412.5,1705.5 C 2417.21,1709.94 2422.04,1714.28 2427,1718.5C 2427.81,1720.44 2428.31,1722.44 2428.5,1724.5C 2421.79,1723.72 2415.13,1722.72 2408.5,1721.5C 2408.17,1721 2407.83,1720.5 2407.5,1720C 2409.08,1715.11 2410.74,1710.27 2412.5,1705.5 Z M 1851.5,1720.5 C 1855.18,1720.33 1858.85,1720.5 1862.5,1721C 1851.86,1722.36 1841.2,1722.7 1830.5,1722C 1837.68,1721.83 1844.68,1721.33 1851.5,1720.5 Z M 2108.5,1720.5 C 2125.7,1723.04 2142.87,1723.04 2160,1720.5C 2161.25,1721.21 2162.42,1722.04 2163.5,1723C 2160.7,1724.45 2157.7,1725.45 2154.5,1726C 2140.41,1727.68 2126.41,1729.84 2112.5,1732.5C 2111.73,1728.3 2110.4,1724.3 2108.5,1720.5 Z M 2179.5,1720.5 C 2180.93,1722.52 2182.27,1724.69 2183.5,1727C 2182.55,1727.62 2181.72,1727.45 2181,1726.5C 2179.87,1724.65 2179.37,1722.65 2179.5,1720.5 Z M 2394.5,1720.5 C 2391.11,1727.62 2386.94,1734.28 2382,1740.5C 2379.07,1744.03 2375.57,1746.7 2371.5,1748.5C 2376.14,1744.7 2380.3,1740.36 2384,1735.5C 2387.03,1730.08 2390.53,1725.08 2394.5,1720.5 Z M 1896.5,1735.5 C 1898.71,1733.64 1900.04,1731.3 1900.5,1728.5C 1908.15,1727.24 1915.82,1726.41 1923.5,1726C 1914.68,1729.75 1905.68,1732.91 1896.5,1735.5 Z M 2403.5,1729.5 C 2406.02,1729.76 2408.35,1730.59 2410.5,1732C 2408.82,1732.39 2407.15,1732.23 2405.5,1731.5C 2404.29,1731.25 2403.62,1730.59 2403.5,1729.5 Z M 2141.5,1731.5 C 2143.86,1731.34 2146.19,1731.5 2148.5,1732C 2138.13,1735.4 2127.8,1738.9 2117.5,1742.5C 2116.25,1741 2115.25,1739.33 2114.5,1737.5C 2123.4,1734.57 2132.4,1732.57 2141.5,1731.5 Z M 2424.5,1732.5 C 2428.12,1731.09 2429.62,1732.42 2429,1736.5C 2427.63,1734.96 2426.13,1733.63 2424.5,1732.5 Z M 2437.5,1734.5 C 2439.37,1736.64 2440.04,1739.3 2439.5,1742.5C 2438.5,1742.5 2437.5,1742.5 2436.5,1742.5C 2436.4,1739.76 2436.73,1737.1 2437.5,1734.5 Z"/></g>
<g><path style="opacity:0.914" fill="#fab03f" d="M 2327.5,1576.5 C 2326.51,1576.33 2325.84,1576.66 2325.5,1577.5C 2324.18,1577.67 2323.01,1577.34 2322,1576.5C 2319.31,1568.11 2315.31,1560.44 2310,1553.5C 2307.76,1563.76 2302.26,1571.93 2293.5,1578C 2289.66,1578.83 2288.16,1577.33 2289,1573.5C 2292.63,1570.87 2295.97,1567.87 2299,1564.5C 2304.95,1556.91 2304.78,1549.41 2298.5,1542C 2289.77,1537.06 2286.27,1539.56 2288,1549.5C 2291.2,1552.37 2294.04,1555.54 2296.5,1559C 2295.83,1559.67 2295.17,1560.33 2294.5,1561C 2288.59,1561.04 2282.75,1560.2 2277,1558.5C 2269.27,1559.73 2261.61,1559.73 2254,1558.5C 2252.6,1556.36 2251.76,1554.03 2251.5,1551.5C 2257.08,1539.74 2265.42,1530.24 2276.5,1523C 2284.32,1519.04 2291.48,1519.87 2298,1525.5C 2301.79,1533.43 2306.79,1540.43 2313,1546.5C 2320.25,1555.33 2325.08,1565.33 2327.5,1576.5 Z"/></g>
<g><path style="opacity:0.141" fill="#fab03f" d="M 2463.5,1662.5 C 2464.71,1663.5 2464.55,1664.5 2463,1665.5C 2462.53,1664.42 2462.7,1663.42 2463.5,1662.5 Z"/></g>
<g><path style="opacity:0.252" fill="#fab03f" d="M 1906.5,1694.5 C 1913.26,1694.64 1919.93,1695.47 1926.5,1697C 1919.63,1696.97 1912.96,1696.14 1906.5,1694.5 Z"/></g>
<g><path style="opacity:0.469" fill="#fab03f" d="M 1903.5,1700.5 C 1907.83,1700.92 1912.17,1701.42 1916.5,1702C 1908.83,1702.67 1901.17,1702.67 1893.5,1702C 1897.03,1701.82 1900.36,1701.32 1903.5,1700.5 Z"/></g>
</svg>
