<svg viewboxsize="575" data-root-id="4926746546377" xmlns="http://www.w3.org/2000/svg" xmlns:xlink="http://www.w3.org/1999/xlink" version="1.1" id="Layer_1" x="100.346" y="254.585" viewBox="25.980010986328125 106.81999969482422 448.0312194824219 286.3800048828125" xml:space="preserve" height="65.82962658385071" width="102.98809051513672" preserveAspectRatio="xMinYMin" zoom="1" editortype="buyer" data-layer-role="icon" style="position: absolute; height: 65.8296px; width: 102.988px; top: 254.585px; left: 100.346px;"><path class="st0" d="M250.19,286.54c-35.18,0-63.81-28.62-63.81-63.81s28.62-63.81,63.81-63.81s63.81,28.62,63.81,63.81    S285.37,286.54,250.19,286.54z M250.19,173.1c-27.37,0-49.63,22.26-49.63,49.63s22.26,49.63,49.63,49.63h0    c27.36,0,49.63-22.26,49.63-49.63S277.55,173.1,250.19,173.1z" name="Layer %{number}" zoom="1" data-layer-id="7184220446378" style="fill: rgb(84, 100, 88);"></path><path class="st0" d="M455.35,177.61c-12.05-12.05-28.08-18.69-45.12-18.69s-33.07,6.64-45.12,18.69l-35.09,35.09l-10.32-10.32   c1.89,6.46,2.93,13.28,2.93,20.35c0,0.86-0.04,1.71-0.07,2.57l7.46,7.46l45.12-45.12c9.37-9.37,21.84-14.54,35.09-14.54   s25.72,5.16,35.09,14.54c19.35,19.35,19.35,50.83,0,70.18l-115.3,115.3L195.37,238.47c-0.63,1.21-1.37,2.36-2.2,3.44   c4.02,7.91,7.2,16.27,10.26,24.67l126.6,126.6l125.33-125.33C480.23,242.97,480.23,202.49,455.35,177.61z" name="Layer %{number}" zoom="1" data-layer-id="2757889646378" style="fill: rgb(84, 100, 88);"></path><path class="st0" d="M229.8,313.3l-59.82,59.82l-115.3-115.3c-19.35-19.35-19.35-50.83,0-70.18c9.37-9.37,21.84-14.54,35.09-14.54    s25.72,5.16,35.09,14.54l45.12,45.12l7.82-7.82c-0.02-0.73-0.06-1.46-0.06-2.2c0-7.25,1.08-14.26,3.08-20.87l-10.85,10.85    l-35.09-35.09c-12.05-12.05-28.07-18.69-45.12-18.69s-33.07,6.64-45.12,18.69c-24.88,24.88-24.88,65.36,0,90.24l125.33,125.33    l69.85-69.85L229.8,313.3z" name="Layer %{number}" zoom="1" data-layer-id="0181384546378" style="fill: rgb(84, 100, 88);"></path><polygon class="st0" points="250.94,155.64 282.72,117.83 270.58,106.82 231.29,106.82 219.15,117.83  " name="Layer %{number}" zoom="1" data-layer-id="0702041946378" style="fill: rgb(84, 100, 88);"></polygon></svg>